<svg width="35" height="35" viewBox="0 0 35 35" fill="none" xmlns="http://www.w3.org/2000/svg">
<path d="M26.25 11.6667C26.25 12.4402 25.9427 13.1821 25.3957 13.7291C24.8487 14.276 24.1068 14.5833 23.3333 14.5833C22.5597 14.5833 21.8179 14.276 21.2709 13.7291C20.7239 13.1821 20.4166 12.4402 20.4166 11.6667C20.4166 10.8931 20.7239 10.1513 21.2709 9.60427C21.8179 9.05729 22.5597 8.75 23.3333 8.75C24.1068 8.75 24.8487 9.05729 25.3957 9.60427C25.9427 10.1513 26.25 10.8931 26.25 11.6667Z" fill="black"/>
<path fill-rule="evenodd" clip-rule="evenodd" d="M17.4168 1.823H17.5831C20.9504 1.823 23.5885 1.823 25.6477 2.10008C27.7535 2.383 29.416 2.97508 30.7212 4.27883C32.0264 5.58404 32.617 7.24654 32.9 9.35383C33.177 11.4115 33.177 14.0497 33.177 17.417V17.5453C33.177 20.3292 33.177 22.6072 33.0254 24.4622C32.8737 26.3288 32.5631 27.8849 31.866 29.1799C31.5597 29.7501 31.1806 30.262 30.7212 30.7213C29.416 32.0265 27.7535 32.6172 25.6462 32.9001C23.5885 33.1772 20.9504 33.1772 17.5831 33.1772H17.4168C14.0495 33.1772 11.4114 33.1772 9.35225 32.9001C7.24642 32.6172 5.58392 32.0251 4.27871 30.7213C3.12225 29.5649 2.52433 28.1255 2.20788 26.3376C1.89433 24.5832 1.83746 22.4001 1.82579 19.6905C1.82288 19.0007 1.82288 18.2715 1.82288 17.5015V17.417C1.82288 14.0497 1.82288 11.4115 2.09996 9.35237C2.38288 7.24654 2.97496 5.58404 4.27871 4.27883C5.58392 2.97362 7.24642 2.383 9.35371 2.10008C11.4114 1.823 14.0495 1.823 17.4168 1.823ZM9.64392 4.26716C7.78017 4.518 6.65579 4.99633 5.826 5.82612C4.99475 6.65737 4.51788 7.78029 4.26704 9.6455C4.01329 11.5413 4.01038 14.0322 4.01038 17.5001V18.7309L5.47017 17.4534C6.11048 16.8929 6.93991 16.5967 7.79042 16.6249C8.64094 16.6531 9.44896 17.0034 10.0508 17.6051L16.307 23.8613C16.7925 24.3467 17.4337 24.6453 18.1176 24.7045C18.8016 24.7637 19.4845 24.5798 20.0462 24.1851L20.4808 23.8788C21.2912 23.3094 22.2708 23.0318 23.2594 23.0914C24.248 23.151 25.1872 23.5443 25.9233 24.207L30.0504 27.9213C30.4675 27.0492 30.7139 25.903 30.8452 24.2857C30.9881 22.5284 30.9895 20.338 30.9895 17.5001C30.9895 14.0322 30.9866 11.5413 30.7329 9.6455C30.482 7.78029 30.0037 6.65591 29.1739 5.82466C28.3427 4.99487 27.2197 4.518 25.3545 4.26716C23.4587 4.01341 20.9679 4.0105 17.5 4.0105C14.032 4.0105 11.5398 4.01341 9.64392 4.26716Z" fill="black"/>
</svg>
