<svg width="35" height="35" viewBox="0 0 35 35" fill="none" xmlns="http://www.w3.org/2000/svg">
<path fill-rule="evenodd" clip-rule="evenodd" d="M13.747 6.64709C8.25634 10.1733 5.20623 14.2771 4.59592 18.9605C3.64582 26.25 10.1646 29.8178 13.4677 26.6124C16.7708 23.4063 14.7911 19.3375 12.3995 18.2248C10.0078 17.1128 8.54509 17.5 8.8003 16.0132C9.05551 14.5272 12.4578 10.4059 15.4474 8.48678C15.5533 8.39669 15.6209 8.26958 15.6364 8.13138C15.6518 7.99317 15.6139 7.85428 15.5305 7.74303L14.7911 6.78125C14.4703 6.36417 14.1626 6.38094 13.747 6.64709ZM28.2034 6.64709C22.7128 10.1733 19.662 14.2778 19.0524 18.9605C18.1023 26.25 24.621 29.8178 27.9242 26.6124C31.2273 23.4063 29.2476 19.3375 26.8552 18.2248C24.4635 17.1128 23.0008 17.5 23.256 16.0132C23.5112 14.5272 26.9143 10.4059 29.9038 8.48678C30.0097 8.39659 30.0771 8.26943 30.0924 8.13123C30.1077 7.99303 30.0698 7.85419 29.9862 7.74303L29.2469 6.78125C28.926 6.36417 28.6183 6.38094 28.2034 6.64709Z" fill="black"/>
</svg>
