<svg width="22" height="22" viewBox="0 0 22 22" fill="none" xmlns="http://www.w3.org/2000/svg">
<path d="M20.5336 8.46376V11.2051C20.5321 12.727 19.9908 14.186 19.0284 15.2621C18.0661 16.3382 16.7613 16.9435 15.4003 16.9453H2.87072L4.91882 14.655L3.88181 13.4954L1.83365 15.7856L1.6313 16.0118L0.0928574 17.7321L3.48553 22.0002L4.58177 20.9106L2.73336 18.5853H15.4003C19.0395 18.5853 22.0003 15.2745 22.0003 11.2051V6.82373L20.5336 8.46376Z" fill="white"/>
<path d="M1.46667 10.795C1.46821 9.27317 2.00953 7.81413 2.97189 6.73803C3.93424 5.66194 5.23905 5.05659 6.60002 5.05488H19.1296L17.0815 7.34514L18.1185 8.50473L20.1666 6.21453L20.3553 6.00357L21.9075 4.26798L18.5148 0L17.4185 1.08959L19.2669 3.41485H6.60002C2.96083 3.41485 0 6.72566 0 10.795V15.1917L1.46667 13.5516V10.795Z" fill="white"/>
<path d="M6.95789 14.1779V8.71802H10.0477V9.44549H7.78704V11.0412H9.78954V11.7609H7.78704V14.1779H6.95789ZM11.7736 14.1779H10.9445V8.71802H13.1034C13.5728 8.71802 13.9248 8.85882 14.1594 9.14042C14.3993 9.41679 14.5193 9.81572 14.5193 10.3372C14.5193 10.7596 14.441 11.1012 14.2846 11.3619C14.1281 11.6227 13.8935 11.7974 13.5806 11.886L14.6209 14.1779H13.6979L12.7514 11.9486H11.7736V14.1779ZM13.033 11.2524C13.2312 11.2524 13.3798 11.2029 13.4789 11.1038C13.5832 10.9995 13.6353 10.8326 13.6353 10.6032V10.0947C13.6353 9.8653 13.5832 9.70103 13.4789 9.60193C13.3798 9.49765 13.2312 9.44549 13.033 9.44549H11.7736V11.2524H13.033Z" fill="white"/>
</svg>
