<svg width="22" height="22" viewBox="0 0 22 22" fill="none" xmlns="http://www.w3.org/2000/svg">
<path d="M20.5338 8.46378V11.2052C20.5323 12.727 19.991 14.186 19.0286 15.2622C18.0662 16.3383 16.7614 16.9436 15.4004 16.9454H2.87075L4.91887 14.6551L3.88185 13.4954L1.83368 15.7857L1.63132 16.0119L0.092865 17.7322L3.48557 22.0003L4.58182 20.9107L2.73339 18.5854H15.4004C19.0397 18.5854 22.0005 15.2746 22.0005 11.2052V6.82373L20.5338 8.46378Z" fill="white"/>
<path d="M1.46668 10.7951C1.46822 9.27325 2.00955 7.8142 2.97191 6.73809C3.93427 5.66199 5.23909 5.05664 6.60008 5.05493H19.1298L17.0816 7.3452L18.1187 8.50481L20.1668 6.21458L20.3555 6.00362L21.9077 4.26801L18.5149 0L17.4187 1.0896L19.2671 3.41488H6.60008C2.96086 3.41488 0 6.72572 0 10.7951V15.1918L1.46668 13.5518V10.7951Z" fill="white"/>
<path d="M6.95795 14.1777V8.71777H10.126V9.44525H7.78711V11.041H9.89914V11.7607H7.78711V13.4503H10.126V14.1777H6.95795ZM12.3642 10.9002L11.9496 9.8833H11.8479L11.9105 10.9158V14.1777H11.1126V8.71777H12.0669L13.694 11.9953L14.1164 13.0122H14.2181L14.1555 11.9797V8.71777H14.9534V14.1777H13.9912L12.3642 10.9002Z" fill="white"/>
</svg>
