<svg width="35" height="35" viewBox="0 0 35 35" fill="none" xmlns="http://www.w3.org/2000/svg">
<path d="M8.75 24.7917C8.75 21.875 14.5833 20.2708 17.5 20.2708C20.4167 20.2708 26.25 21.875 26.25 24.7917V26.25H8.75M21.875 13.125C21.875 14.2853 21.4141 15.3981 20.5936 16.2186C19.7731 17.0391 18.6603 17.5 17.5 17.5C16.3397 17.5 15.2269 17.0391 14.4064 16.2186C13.5859 15.3981 13.125 14.2853 13.125 13.125C13.125 11.9647 13.5859 10.8519 14.4064 10.0314C15.2269 9.21094 16.3397 8.75 17.5 8.75C18.6603 8.75 19.7731 9.21094 20.5936 10.0314C21.4141 10.8519 21.875 11.9647 21.875 13.125ZM4.375 7.29167V27.7083C4.375 28.4819 4.68229 29.2237 5.22927 29.7707C5.77625 30.3177 6.51812 30.625 7.29167 30.625H27.7083C28.4819 30.625 29.2237 30.3177 29.7707 29.7707C30.3177 29.2237 30.625 28.4819 30.625 27.7083V7.29167C30.625 6.51812 30.3177 5.77625 29.7707 5.22927C29.2237 4.68229 28.4819 4.375 27.7083 4.375H7.29167C6.51812 4.375 5.77625 4.68229 5.22927 5.22927C4.68229 5.77625 4.375 6.51812 4.375 7.29167Z" fill="black"/>
</svg>
