<svg width="32" height="27" viewBox="0 0 32 27" fill="none" xmlns="http://www.w3.org/2000/svg">
<path d="M0 24.75C0 25.9926 1.00736 27 2.25 27H29.75C30.9926 27 32 25.9926 32 24.75V24.75C32 23.5074 30.9926 22.5 29.75 22.5H2.25C1.00736 22.5 0 23.5074 0 24.75V24.75ZM0 13.5C0 14.7426 1.00736 15.75 2.25 15.75H29.75C30.9926 15.75 32 14.7426 32 13.5V13.5C32 12.2574 30.9926 11.25 29.75 11.25H2.25C1.00736 11.25 0 12.2574 0 13.5V13.5ZM2.25 0C1.00736 0 0 1.00736 0 2.25V2.25C0 3.49264 1.00736 4.5 2.25 4.5H29.75C30.9926 4.5 32 3.49264 32 2.25V2.25C32 1.00736 30.9926 0 29.75 0H2.25Z" fill="white"/>
</svg>
