<svg width="35" height="35" viewBox="0 0 35 35" fill="none" xmlns="http://www.w3.org/2000/svg">
<g clip-path="url(#clip0_1833_362)">
<path fill-rule="evenodd" clip-rule="evenodd" d="M27.2285 4.67841C27.6463 4.60874 28.0742 4.63088 28.4825 4.74331C28.8909 4.85573 29.2698 5.05573 29.593 5.32941C29.9163 5.60309 30.176 5.94388 30.3542 6.32809C30.5324 6.7123 30.6248 7.13071 30.625 7.55424V24.7917C30.6247 26.0758 30.2007 27.3239 29.4188 28.3424C28.637 29.361 27.5408 30.0931 26.3005 30.4253C25.0601 30.7574 23.7448 30.671 22.5586 30.1794C21.3723 29.6879 20.3814 28.8186 19.7395 27.7065C19.0976 26.5944 18.8406 25.3016 19.0083 24.0285C19.176 22.7555 19.7591 21.5733 20.6671 20.6654C21.5751 19.7575 22.7573 19.1745 24.0304 19.007C25.3035 18.8394 26.5963 19.0966 27.7083 19.7386V13.3876L13.125 15.8186V26.2501C13.125 26.3376 13.1177 26.4207 13.1031 26.5038C13.2078 27.6252 12.9386 28.7498 12.3376 29.7023C11.7365 30.6548 10.8372 31.3817 9.77989 31.7698C8.72257 32.158 7.56657 32.1855 6.49199 31.8481C5.41742 31.5106 4.48461 30.8273 3.83892 29.9045C3.19323 28.9816 2.8709 27.8711 2.92216 26.746C2.97342 25.6208 3.3954 24.5443 4.12233 23.684C4.84927 22.8237 5.84035 22.228 6.94115 21.9897C8.04196 21.7514 9.19067 21.8839 10.2083 22.3665V9.98528C10.2082 9.29485 10.4531 8.62678 10.8993 8.09991C11.3455 7.57305 11.9642 7.22156 12.6452 7.10799L27.2285 4.67841ZM13.125 12.8626L27.7083 10.4315V7.55424L13.125 9.98528V12.8626Z" fill="black"/>
</g>
<defs>
<clipPath id="clip0_1833_362">
<rect width="35" height="35" fill="white"/>
</clipPath>
</defs>
</svg>
