<svg width="35" height="35" viewBox="0 0 35 35" fill="none" xmlns="http://www.w3.org/2000/svg">
<path d="M11.6667 5.83325V29.1666M23.3334 5.83325V29.1666M5.83337 11.6666H11.6667M5.83337 23.3333H11.6667M5.83337 17.4999H29.1667M23.3334 11.6666H29.1667M23.3334 23.3333H29.1667M5.83337 8.74992C5.83337 7.97637 6.14066 7.2345 6.68765 6.68752C7.23463 6.14054 7.97649 5.83325 8.75004 5.83325H26.25C27.0236 5.83325 27.7655 6.14054 28.3124 6.68752C28.8594 7.2345 29.1667 7.97637 29.1667 8.74992V26.2499C29.1667 27.0235 28.8594 27.7653 28.3124 28.3123C27.7655 28.8593 27.0236 29.1666 26.25 29.1666H8.75004C7.97649 29.1666 7.23463 28.8593 6.68765 28.3123C6.14066 27.7653 5.83337 27.0235 5.83337 26.2499V8.74992Z" stroke="black" stroke-width="2" stroke-linecap="round" stroke-linejoin="round"/>
</svg>
