<svg width="35" height="35" viewBox="0 0 35 35" fill="none" xmlns="http://www.w3.org/2000/svg">
<path d="M0 0V35H2.91667V27.7083H6.1075C6.71708 29.3942 8.32417 30.625 10.2083 30.625C12.0925 30.625 13.6996 29.3942 14.3106 27.7083H35V24.7917H14.3092C13.6996 23.1058 12.0925 21.875 10.2083 21.875C8.32417 21.875 6.71708 23.1058 6.10604 24.7917H2.91667V18.9583H23.6075C24.2171 20.6442 25.8242 21.875 27.7083 21.875C29.5925 21.875 31.1996 20.6442 31.8106 18.9583H35V16.0417H31.8092C31.1996 14.3558 29.5925 13.125 27.7083 13.125C25.8242 13.125 24.2171 14.3558 23.606 16.0417H2.91667V10.2083H13.3992C14.0087 11.8942 15.6158 13.125 17.5 13.125C19.3842 13.125 20.9913 11.8942 21.6023 10.2083H35V7.29167H21.6008C20.9913 5.60583 19.3842 4.375 17.5 4.375C15.6158 4.375 14.0088 5.60583 13.3977 7.29167H2.91667V0H0ZM17.5 7.29167C18.3225 7.29167 18.9583 7.9275 18.9583 8.75C18.9583 9.5725 18.3225 10.2083 17.5 10.2083C16.6775 10.2083 16.0417 9.5725 16.0417 8.75C16.0417 7.9275 16.6775 7.29167 17.5 7.29167ZM27.7083 16.0417C28.5308 16.0417 29.1667 16.6775 29.1667 17.5C29.1667 18.3225 28.5308 18.9583 27.7083 18.9583C26.8858 18.9583 26.25 18.3225 26.25 17.5C26.25 16.6775 26.8858 16.0417 27.7083 16.0417ZM10.2083 24.7917C11.0308 24.7917 11.6667 25.4275 11.6667 26.25C11.6667 27.0725 11.0308 27.7083 10.2083 27.7083C9.38583 27.7083 8.75 27.0725 8.75 26.25C8.75 25.4275 9.38583 24.7917 10.2083 24.7917Z" fill="black"/>
</svg>
